<svg width="285" height="73" fill="none" xmlns="http://www.w3.org/2000/svg"><path transform="matrix(1 0 .00065 1 1 48.362)" stroke="#fff" stroke-width="2" d="M0-1h282"/><path d="M122.234 37h-4.804v-9.61H90.617v-4.78h26.813V8.194h-17.227c-1.64 0-3.187.32-4.64.961a11.844 11.844 0 00-3.797 2.578 12.367 12.367 0 00-2.579 3.797c-.624 1.453-.937 3.008-.937 4.664V37h-4.805V20.195c0-1.547.196-3.03.586-4.453a17.25 17.25 0 011.688-4.008 16.864 16.864 0 012.625-3.398 17.3 17.3 0 013.398-2.649A16.508 16.508 0 0195.75 4a16.13 16.13 0 014.453-.61h22.031V37zm65.672-16.805c0 2.328-.375 4.516-1.125 6.563-.734 2.047-1.781 3.828-3.14 5.344a14.793 14.793 0 01-4.899 3.586c-1.89.874-3.992 1.312-6.304 1.312h-16.946v-4.805h16.946c1.656 0 3.14-.312 4.453-.937a9.72 9.72 0 003.351-2.555c.922-1.094 1.625-2.367 2.11-3.82.5-1.469.75-3.031.75-4.688 0-1.656-.25-3.21-.75-4.664-.485-1.453-1.188-2.719-2.11-3.797a9.592 9.592 0 00-3.351-2.578c-1.313-.64-2.797-.96-4.453-.96h-19.336V37h-4.805V3.39h24.141c2.312 0 4.414.446 6.304 1.337a14.642 14.642 0 014.899 3.609c1.359 1.516 2.406 3.297 3.14 5.344.75 2.03 1.125 4.203 1.125 6.515zM216.852 37h-4.805V3.39h4.805V37zm65.695-16.805c0 2.328-.375 4.516-1.125 6.563-.734 2.047-1.781 3.828-3.141 5.344a14.78 14.78 0 01-4.898 3.586c-1.891.874-3.992 1.312-6.305 1.312h-16.945v-4.805h16.945c1.656 0 3.141-.312 4.453-.937a9.723 9.723 0 003.352-2.555c.922-1.094 1.625-2.367 2.109-3.82.5-1.469.75-3.031.75-4.688 0-1.656-.25-3.21-.75-4.664-.484-1.453-1.187-2.719-2.109-3.797a9.596 9.596 0 00-3.352-2.578c-1.312-.64-2.797-.96-4.453-.96h-19.336V37h-4.804V3.39h24.14c2.313 0 4.414.446 6.305 1.337a14.629 14.629 0 014.898 3.609c1.36 1.516 2.407 3.297 3.141 5.344.75 2.03 1.125 4.203 1.125 6.515zM19.717 65.57c0 .696-.134 1.35-.4 1.963a5.02 5.02 0 01-1.075 1.601c-.456.456-.99.817-1.601 1.084a4.96 4.96 0 01-1.963.39 5.32 5.32 0 01-1.211-.136 5.616 5.616 0 01-1.094-.4 5.267 5.267 0 01-.967-.635 5.31 5.31 0 01-.79-.83 5.126 5.126 0 01-1.739 1.465 4.945 4.945 0 01-2.295.537 4.96 4.96 0 01-1.963-.391 5.154 5.154 0 01-1.601-1.084 5.156 5.156 0 01-1.084-1.602 4.96 4.96 0 01-.391-1.962v-8.965h1.992v8.965c0 .423.078.82.235 1.191.162.365.38.684.654.957.28.273.602.492.967.654.37.157.768.235 1.191.235.41 0 .794-.075 1.152-.225a3 3 0 001.602-1.533c.17-.358.264-.74.283-1.143v-9.101h2.022v8.965c0 .423.078.82.234 1.191a3.146 3.146 0 001.611 1.611c.371.157.769.235 1.192.235a3 3 0 001.181-.235 3.129 3.129 0 001.621-1.611c.163-.371.245-.768.245-1.191v-8.965h1.992v8.965zm17.715 5.039H22.949V56.605h14.483v2.002h-12.48v10h12.48v2.002zm-1.7-5.996h-9.785V62.61h9.785v2.002zm26.348 5.996h-9.014c-.97 0-1.852-.183-2.646-.547a6.16 6.16 0 01-2.041-1.494 6.754 6.754 0 01-1.299-2.227 8.037 8.037 0 01-.459-2.734c0-.964.153-1.869.46-2.715a6.754 6.754 0 011.298-2.227 6.098 6.098 0 012.04-1.504c.795-.37 1.677-.556 2.647-.556h9.014v2.002h-9.014c-.69 0-1.311.133-1.865.4a4.12 4.12 0 00-1.396 1.074c-.378.45-.67.977-.88 1.582a6.108 6.108 0 00-.302 1.944c0 .69.101 1.34.303 1.953.208.605.501 1.136.879 1.592.384.449.85.804 1.396 1.064.554.26 1.175.39 1.865.39h9.014v2.003zm18.594 0h-2.705l-4.2-4.004h-6.132v-1.973h8.037c.416 0 .807-.078 1.172-.234.364-.163.68-.381.947-.655a2.996 2.996 0 00.879-2.138 2.942 2.942 0 00-.879-2.12 2.942 2.942 0 00-2.12-.879h-9.16V70.61h-2.001V56.605h11.162c.69 0 1.338.133 1.943.4a4.93 4.93 0 011.582 1.074c.456.45.814.977 1.074 1.582.267.606.4 1.254.4 1.944a4.92 4.92 0 01-.321 1.777 5.165 5.165 0 01-.89 1.494 4.979 4.979 0 01-2.988 1.67l4.2 4.063zm17.05 0H83.243V56.605h14.483v2.002h-12.48v10h12.48v2.002zm-1.699-5.996H86.24V62.61h9.785v2.002zm20.108 5.996h-2.002v-4.004h-11.172v-1.993h11.172v-6.005h-7.178c-.683 0-1.328.133-1.933.4a4.927 4.927 0 00-1.582 1.074c-.45.45-.808.977-1.075 1.582a4.873 4.873 0 00-.39 1.944v7.002h-2.002v-7.002c0-.645.081-1.263.244-1.856a7.154 7.154 0 01.703-1.67 7.17 7.17 0 012.51-2.52 6.874 6.874 0 011.67-.702 6.72 6.72 0 011.855-.254h9.18v14.004zm10.957 0h-2.002V58.607h-7.08v-2.002h16.162v2.002h-7.08v12.002zm23.447 0h-14.482V56.605h14.482v2.002h-12.48v10h12.48v2.002zm-1.699-5.996h-9.785V62.61h9.785v2.002zm26.172 5.996h-14.483V56.605h14.483v2.002h-12.481v10h12.481v2.002zm-1.699-5.996h-9.786V62.61h9.786v2.002zm18.789 5.996h-2.618l-5.478-5.645-5.459 5.645h-2.627l6.787-7.002-6.787-7.002h2.627L192.1 70.609zm0-14.004l-6.104 6.279-1.299-1.338 4.785-4.941h2.618zm15.166 14.004h-13.379V56.605h2.002v12.002h11.377v2.002zm16.445-14.004l-.02 7.002c0 .65-.084 1.276-.253 1.875a6.89 6.89 0 01-.704 1.67 6.928 6.928 0 01-1.093 1.416 7.075 7.075 0 01-1.416 1.093c-.515.3-1.068.534-1.661.704a6.963 6.963 0 01-1.855.244h-1.475a7.081 7.081 0 01-1.865-.244 7.184 7.184 0 01-1.67-.713 7.16 7.16 0 01-1.406-1.094 7.42 7.42 0 01-1.094-1.416 7.44 7.44 0 01-.703-1.67 7.071 7.071 0 01-.244-1.865v-7.002h2.002v7.002c0 .69.13 1.34.391 1.953.26.605.615 1.136 1.064 1.592.456.449.986.804 1.592 1.064.605.26 1.25.39 1.933.39h1.475c.69 0 1.338-.13 1.943-.39a5.008 5.008 0 001.582-1.064c.45-.456.804-.987 1.065-1.592.26-.612.39-1.263.39-1.953v-7.002h2.022zm18.35 10a3.97 3.97 0 01-2.442 3.691 3.868 3.868 0 01-1.553.313h-12.168v-2.002h12.168a1.95 1.95 0 001.407-.586 1.979 1.979 0 00.586-1.416c0-.274-.052-.53-.157-.772a2.026 2.026 0 00-.429-.635 1.914 1.914 0 00-.625-.43 1.95 1.95 0 00-.782-.156h-8.164a3.91 3.91 0 01-1.552-.312 4.104 4.104 0 01-1.28-.85 4.25 4.25 0 01-.859-1.279 3.945 3.945 0 01-.313-1.562c0-.547.105-1.065.313-1.553.215-.488.501-.912.859-1.27a4.02 4.02 0 011.28-.859 3.809 3.809 0 011.552-.322h11.162v2.002h-11.162a1.993 1.993 0 00-1.416.586 1.997 1.997 0 00-.429.644 1.91 1.91 0 00-.157.772 1.979 1.979 0 00.586 1.416 1.991 1.991 0 001.416.586h8.164c.554 0 1.071.107 1.553.322.488.208.912.495 1.27.86.364.357.651.78.859 1.269.208.481.313.996.313 1.543zm4.355 4.004h-2.002V56.605h2.002v14.004zm18.994-14.004l-7.363 14.004h-2.285l-7.354-14.004h2.276l6.22 11.845 6.221-11.845h2.285zm16.455 14.004h-14.482V56.605h14.482v2.002h-12.48v10h12.48v2.002zm-1.699-5.996h-9.785V62.61h9.785v2.002zM44.697 28.632l-3.389-2.48 3.39-2.481c.403-.296.403-.775 0-1.07l-3.466-2.537 3.382-2.475c.404-.296.404-.775 0-1.07L23.747 1.243c-.404-.295-1.058-.295-1.462 0L1.364 16.558c-.194.142-.303.334-.303.535 0 .2.109.393.303.535l3.377 2.473-3.388 2.48c-.403.295-.403.774 0 1.07l3.376 2.47-3.426 2.51c-.404.294-.404.773 0 1.07l3.438 2.516-3.388 2.48c-.403.296-.403.775 0 1.07l4.114 3.011c.202.148.466.222.73.222.265 0 .53-.074.731-.222L23.018 27l15.996 11.709c.194.142.457.221.73.221.275 0 .538-.08.731-.221l4.107-3.006c.404-.296.404-.775 0-1.07l-3.311-2.424 3.426-2.508c.403-.295.403-.774 0-1.07zm-2.192-5.496l-2.658 1.945L24.46 13.818l2.658-1.946 15.387 11.264zm-.083-6.082l-2.651 1.94L24.473 7.796l2.651-1.94 15.298 11.198zm-38.866.04l19.46-14.246 2.647 1.938L6.203 19.03l-2.647-1.938zm-.01 6.022l19.466-14.25 2.645 1.936L6.19 25.052l-2.645-1.936zm-.05 6.05l19.503-14.278 2.707 1.982L6.203 31.147l-2.708-1.982zm2.702 8.007l-2.652-1.94 19.466-14.25 2.652 1.94-19.466 14.25zm36.192-2.005l-2.645 1.936L24.48 25.93l2.645-1.936L42.39 35.168zm-2.58-4.029L24.472 19.913l2.695-1.973 15.336 11.226-2.695 1.973z" fill="#fff"/></svg>