<svg width="291" height="92" fill="none" xmlns="http://www.w3.org/2000/svg"><path stroke="#fff" stroke-width="2" d="M.997 60l289.999-.812"/><path d="M117.234 46h-4.804v-9.61H85.617v-4.78h26.813V17.194H95.203c-1.64 0-3.187.32-4.64.961a11.844 11.844 0 00-3.797 2.578 12.367 12.367 0 00-2.579 3.797c-.624 1.453-.937 3.008-.937 4.664V46h-4.805V29.195c0-1.547.196-3.03.586-4.453a17.25 17.25 0 011.688-4.008 16.866 16.866 0 012.625-3.398 17.302 17.302 0 013.398-2.648A16.505 16.505 0 0190.75 13a16.133 16.133 0 014.453-.61h22.031V46zm65.672-16.805c0 2.328-.375 4.516-1.125 6.563-.734 2.047-1.781 3.828-3.14 5.344a14.793 14.793 0 01-4.899 3.586c-1.89.874-3.992 1.312-6.304 1.312h-16.946v-4.805h16.946c1.656 0 3.14-.312 4.453-.937a9.72 9.72 0 003.351-2.555c.922-1.094 1.625-2.367 2.11-3.82.5-1.469.75-3.031.75-4.688 0-1.656-.25-3.21-.75-4.664-.485-1.453-1.188-2.718-2.11-3.797a9.592 9.592 0 00-3.351-2.578c-1.313-.64-2.797-.96-4.453-.96h-19.336V46h-4.805V12.39h24.141c2.312 0 4.414.446 6.304 1.337a14.643 14.643 0 014.899 3.609c1.359 1.516 2.406 3.297 3.14 5.344.75 2.03 1.125 4.203 1.125 6.515zM211.852 46h-4.805V12.39h4.805V46zm65.695-16.805c0 2.328-.375 4.516-1.125 6.563-.734 2.047-1.781 3.828-3.141 5.344a14.78 14.78 0 01-4.898 3.586c-1.891.874-3.992 1.312-6.305 1.312h-16.945v-4.805h16.945c1.656 0 3.141-.312 4.453-.937a9.723 9.723 0 003.352-2.555c.922-1.094 1.625-2.367 2.109-3.82.5-1.469.75-3.031.75-4.688 0-1.656-.25-3.21-.75-4.664-.484-1.453-1.187-2.718-2.109-3.797a9.596 9.596 0 00-3.352-2.578c-1.312-.64-2.797-.96-4.453-.96h-19.336V46h-4.804V12.39h24.14c2.313 0 4.414.446 6.305 1.337a14.629 14.629 0 014.898 3.609c1.36 1.516 2.407 3.297 3.141 5.344.75 2.03 1.125 4.203 1.125 6.515zM23.717 81.96c0 .698-.134 1.352-.4 1.964a5.02 5.02 0 01-1.075 1.601c-.456.456-.99.817-1.601 1.084a4.96 4.96 0 01-1.963.391 5.32 5.32 0 01-1.211-.137 5.623 5.623 0 01-1.094-.4 5.273 5.273 0 01-.967-.635 5.31 5.31 0 01-.79-.83 5.126 5.126 0 01-1.739 1.465 4.945 4.945 0 01-2.295.537 4.96 4.96 0 01-1.963-.39 5.158 5.158 0 01-1.601-1.085 5.156 5.156 0 01-1.084-1.601 4.96 4.96 0 01-.391-1.963v-8.965h1.992v8.965c0 .423.078.82.235 1.191.162.365.38.684.654.957.28.274.602.492.967.655a3.04 3.04 0 001.191.234c.41 0 .794-.075 1.152-.225.365-.15.68-.354.948-.615.273-.26.491-.566.654-.918.17-.358.264-.739.283-1.142v-9.102h2.022v8.965c0 .423.078.82.234 1.191a3.146 3.146 0 001.611 1.612 3.04 3.04 0 001.192.234c.416 0 .81-.078 1.181-.234.371-.163.694-.381.967-.655.28-.273.498-.592.654-.957.163-.37.245-.768.245-1.191v-8.965h1.992v8.965zM41.432 87H26.949V72.996h14.483v2.002h-12.48v10h12.48V87zm-1.7-5.996h-9.785v-2.002h9.785v2.002zM66.08 87h-9.014c-.97 0-1.852-.182-2.646-.547a6.16 6.16 0 01-2.041-1.494 6.754 6.754 0 01-1.299-2.227 8.036 8.036 0 01-.459-2.734c0-.964.153-1.868.46-2.715a6.755 6.755 0 011.298-2.226 6.098 6.098 0 012.04-1.504c.795-.371 1.677-.557 2.647-.557h9.014v2.002h-9.014c-.69 0-1.311.133-1.865.4a4.12 4.12 0 00-1.396 1.075c-.378.449-.67.976-.88 1.582a6.107 6.107 0 00-.302 1.943c0 .69.101 1.341.303 1.953a5.02 5.02 0 00.879 1.592c.384.45.85.804 1.396 1.064.554.26 1.175.391 1.865.391h9.014V87zm18.594 0h-2.705l-4.2-4.004h-6.132v-1.973h8.037c.416 0 .807-.078 1.172-.234.364-.163.68-.38.947-.654a3.001 3.001 0 00.879-2.139 2.942 2.942 0 00-.879-2.119 2.944 2.944 0 00-2.12-.879h-9.16V87h-2.001V72.996h11.162c.69 0 1.338.134 1.943.4.606.26 1.133.619 1.582 1.075.456.449.814.976 1.074 1.582.267.605.4 1.253.4 1.943a4.93 4.93 0 01-.321 1.777 5.166 5.166 0 01-.89 1.495 4.98 4.98 0 01-2.988 1.67l4.2 4.062zm17.051 0H87.242V72.996h14.483v2.002h-12.48v10h12.48V87zm-1.7-5.996H90.24v-2.002h9.785v2.002zM120.133 87h-2.002v-4.004h-11.172v-1.992h11.172v-6.006h-7.178c-.683 0-1.328.133-1.933.4a4.927 4.927 0 00-1.582 1.075c-.45.449-.808.976-1.075 1.582a4.872 4.872 0 00-.39 1.943V87h-2.002v-7.002c0-.645.081-1.263.244-1.855a7.152 7.152 0 01.703-1.67 7.173 7.173 0 012.51-2.52 6.873 6.873 0 011.67-.703 6.717 6.717 0 011.855-.254h9.18V87zm10.957 0h-2.002V74.998h-7.08v-2.002h16.162v2.002h-7.08V87zm23.447 0h-14.482V72.996h14.482v2.002h-12.48v10h12.48V87zm-1.699-5.996h-9.785v-2.002h9.785v2.002zM179.01 87h-14.483V72.996h14.483v2.002h-12.481v10h12.481V87zm-1.699-5.996h-9.786v-2.002h9.786v2.002zM196.1 87h-2.618l-5.478-5.644L182.545 87h-2.627l6.787-7.002-6.787-7.002h2.627L196.1 87zm0-14.004l-6.104 6.28-1.299-1.338 4.785-4.942h2.618zM211.266 87h-13.379V72.996h2.002v12.002h11.377V87zm16.445-14.004l-.02 7.002c0 .651-.084 1.276-.253 1.875a6.89 6.89 0 01-.704 1.67 6.928 6.928 0 01-1.093 1.416 7.075 7.075 0 01-1.416 1.094c-.515.3-1.068.534-1.661.703a6.967 6.967 0 01-1.855.244h-1.475a7.085 7.085 0 01-1.865-.244 7.184 7.184 0 01-1.67-.713 7.156 7.156 0 01-1.406-1.094 7.423 7.423 0 01-1.094-1.416 7.441 7.441 0 01-.703-1.67 7.072 7.072 0 01-.244-1.865v-7.002h2.002v7.002c0 .69.13 1.341.391 1.953a5.13 5.13 0 001.064 1.592c.456.45.986.804 1.592 1.064.605.26 1.25.391 1.933.391h1.475c.69 0 1.338-.13 1.943-.39a5.006 5.006 0 001.582-1.065 5.13 5.13 0 001.065-1.592c.26-.612.39-1.263.39-1.953v-7.002h2.022zm18.35 10a3.97 3.97 0 01-2.442 3.692 3.87 3.87 0 01-1.553.312h-12.168v-2.002h12.168a1.916 1.916 0 001.407-.586 1.979 1.979 0 00.586-1.416c0-.273-.052-.53-.157-.771a2.026 2.026 0 00-.429-.635 1.95 1.95 0 00-1.407-.586h-8.164a3.91 3.91 0 01-1.552-.313 4.104 4.104 0 01-1.28-.85 4.252 4.252 0 01-.859-1.278 3.946 3.946 0 01-.313-1.563c0-.547.105-1.064.313-1.553.215-.488.501-.911.859-1.27a4.022 4.022 0 011.28-.859 3.807 3.807 0 011.552-.322h11.162v2.002h-11.162a1.991 1.991 0 00-1.416.586 1.997 1.997 0 00-.429.644 1.91 1.91 0 00-.157.772 1.978 1.978 0 00.586 1.416 1.991 1.991 0 001.416.586h8.164a3.77 3.77 0 011.553.322c.488.209.912.495 1.27.86.364.358.651.78.859 1.27.208.48.313.995.313 1.542zM250.416 87h-2.002V72.996h2.002V87zm18.994-14.004L262.047 87h-2.285l-7.354-14.004h2.276l6.22 11.846 6.221-11.846h2.285zM285.865 87h-14.482V72.996h14.482v2.002h-12.48v10h12.48V87zm-1.699-5.996h-9.785v-2.002h9.785v2.002zM56.697 38.08l-3.389-2.612 3.39-2.613c.403-.311.403-.816 0-1.127l-3.466-2.672 3.382-2.607c.404-.311.404-.816 0-1.127L35.747 9.233c-.404-.31-1.058-.31-1.462 0l-20.921 16.13c-.194.15-.303.353-.303.564 0 .211.109.414.303.564l3.377 2.604-3.388 2.612c-.403.31-.403.815 0 1.127l3.376 2.602-3.426 2.642c-.404.311-.404.816 0 1.127l3.438 2.651-3.388 2.612c-.403.311-.403.816 0 1.127l4.114 3.172c.202.155.466.233.73.233.265 0 .53-.078.731-.233l16.09-12.406 15.996 12.332c.194.15.457.234.73.234a1.2 1.2 0 00.731-.234l4.107-3.166c.404-.31.404-.815 0-1.127l-3.311-2.552 3.426-2.641c.403-.312.403-.816 0-1.127zm-2.192-5.789l-2.658 2.05L36.46 22.478l2.658-2.05 15.387 11.863zm-.083-6.405L51.77 27.93 36.473 16.135l2.651-2.044 15.298 11.795zm-38.866.041l19.46-15.003 2.647 2.04-19.46 15.004-2.647-2.04zm-.01 6.343l19.466-15.008 2.645 2.04L18.19 34.31l-2.645-2.04zm-.05 6.372l19.503-15.038 2.707 2.088L18.203 40.73l-2.708-2.087zm2.702 8.434l-2.652-2.044 19.466-15.008 2.652 2.044-19.466 15.008zm36.192-2.112l-2.645 2.039L36.48 35.234l2.645-2.039L54.39 44.964zm-2.58-4.243L36.472 28.897l2.695-2.078 15.336 11.824-2.695 2.078z" fill="#fff"/></svg>