<svg width="291" height="138" fill="none" xmlns="http://www.w3.org/2000/svg"><path stroke="#fff" stroke-width="2" d="M.997 106l289.999-.812M.997 39.364l100-.28m86 .28l103-.288"/><path d="M85.234 92H80.43v-9.61H53.617v-4.78H80.43V63.194H63.203c-1.64 0-3.187.32-4.64.961a11.844 11.844 0 00-3.797 2.578 12.367 12.367 0 00-2.578 3.797c-.626 1.453-.938 3.008-.938 4.664V92h-4.805V75.195c0-1.547.196-3.03.586-4.453a17.25 17.25 0 011.688-4.008 16.866 16.866 0 012.625-3.398 17.302 17.302 0 013.398-2.648A16.505 16.505 0 0158.75 59a16.133 16.133 0 014.453-.61h22.031V92zm65.672-16.805c0 2.328-.375 4.516-1.125 6.563-.734 2.047-1.781 3.828-3.14 5.344a14.793 14.793 0 01-4.899 3.585c-1.89.876-3.992 1.313-6.304 1.313h-16.946v-4.805h16.946c1.656 0 3.14-.312 4.453-.937a9.72 9.72 0 003.351-2.555c.922-1.094 1.625-2.367 2.11-3.82.5-1.469.75-3.031.75-4.688 0-1.656-.25-3.21-.75-4.664-.485-1.453-1.188-2.719-2.11-3.797a9.592 9.592 0 00-3.351-2.578c-1.313-.64-2.797-.96-4.453-.96h-19.336V92h-4.805V58.39h24.141c2.312 0 4.414.446 6.304 1.337a14.643 14.643 0 014.899 3.609c1.359 1.516 2.406 3.297 3.14 5.344.75 2.03 1.125 4.203 1.125 6.515zM179.852 92h-4.805V58.39h4.805V92zm65.695-16.805c0 2.328-.375 4.516-1.125 6.563-.734 2.047-1.781 3.828-3.141 5.344a14.78 14.78 0 01-4.898 3.585c-1.891.876-3.992 1.313-6.305 1.313h-16.945v-4.805h16.945c1.656 0 3.141-.312 4.453-.937a9.723 9.723 0 003.352-2.555c.922-1.094 1.625-2.367 2.109-3.82.5-1.469.75-3.031.75-4.688 0-1.656-.25-3.21-.75-4.664-.484-1.453-1.187-2.719-2.109-3.797a9.596 9.596 0 00-3.352-2.578c-1.312-.64-2.797-.96-4.453-.96h-19.336V92h-4.804V58.39h24.14c2.313 0 4.414.446 6.305 1.337a14.629 14.629 0 014.898 3.609c1.36 1.516 2.407 3.297 3.141 5.344.75 2.03 1.125 4.203 1.125 6.515zm-221.83 52.766a4.87 4.87 0 01-.4 1.963 5.01 5.01 0 01-1.075 1.601c-.456.456-.99.817-1.601 1.084a4.95 4.95 0 01-1.963.391 5.32 5.32 0 01-1.211-.137 5.596 5.596 0 01-1.094-.4 5.253 5.253 0 01-.967-.635 5.292 5.292 0 01-.79-.83 5.13 5.13 0 01-1.739 1.465 4.947 4.947 0 01-2.295.537 4.95 4.95 0 01-1.963-.391 5.153 5.153 0 01-1.601-1.084 5.145 5.145 0 01-1.084-1.601 4.96 4.96 0 01-.391-1.963v-8.965h1.992v8.965c0 .423.078.82.235 1.191.162.365.38.684.654.957.28.274.602.492.967.655.37.156.768.234 1.191.234.41 0 .794-.075 1.152-.225.365-.149.68-.354.948-.615.273-.26.491-.566.654-.918.17-.358.264-.739.283-1.142v-9.102h2.022v8.965c0 .423.078.82.234 1.191a3.154 3.154 0 001.611 1.612c.371.156.769.234 1.192.234.416 0 .81-.078 1.181-.234.371-.163.694-.381.967-.655.28-.273.498-.592.654-.957.163-.371.245-.768.245-1.191v-8.965h1.992v8.965zM41.432 133H26.949v-14.004h14.483v2.002h-12.48v10h12.48V133zm-1.7-5.996h-9.785v-2.002h9.785v2.002zM66.08 133h-9.014c-.97 0-1.852-.182-2.646-.547a6.158 6.158 0 01-2.041-1.494 6.76 6.76 0 01-1.299-2.227 8.03 8.03 0 01-.459-2.734c0-.963.153-1.868.46-2.715a6.745 6.745 0 011.298-2.226 6.09 6.09 0 012.04-1.504c.795-.371 1.677-.557 2.647-.557h9.014v2.002h-9.014c-.69 0-1.311.134-1.865.4a4.126 4.126 0 00-1.396 1.075c-.378.449-.67.976-.88 1.582a6.104 6.104 0 00-.302 1.943c0 .69.101 1.341.303 1.953a5.02 5.02 0 00.879 1.592c.384.449.85.804 1.396 1.064.554.261 1.175.391 1.865.391h9.014V133zm18.594 0h-2.705l-4.2-4.004h-6.132v-1.973h8.037c.416 0 .807-.078 1.172-.234.364-.163.68-.381.947-.654a3.001 3.001 0 00.879-2.139 2.943 2.943 0 00-.879-2.119 2.93 2.93 0 00-2.12-.879h-9.16V133h-2.001v-14.004h11.162c.69 0 1.338.134 1.943.4a4.941 4.941 0 011.582 1.075c.456.449.814.976 1.074 1.582.267.605.4 1.253.4 1.943a4.93 4.93 0 01-.321 1.777 5.166 5.166 0 01-.89 1.495c-.377.436-.823.8-1.337 1.093a4.976 4.976 0 01-1.65.577L84.674 133zm17.051 0H87.242v-14.004h14.483v2.002h-12.48v10h12.48V133zm-1.7-5.996H90.24v-2.002h9.785v2.002zM120.133 133h-2.002v-4.004h-11.172v-1.992h11.172v-6.006h-7.178c-.683 0-1.328.134-1.933.4a4.934 4.934 0 00-1.582 1.075c-.45.449-.808.976-1.075 1.582a4.87 4.87 0 00-.39 1.943V133h-2.002v-7.002c0-.644.081-1.263.244-1.855a7.147 7.147 0 01.703-1.67 7.16 7.16 0 012.51-2.52 6.881 6.881 0 011.67-.703 6.729 6.729 0 011.855-.254h9.18V133zm10.957 0h-2.002v-12.002h-7.08v-2.002h16.162v2.002h-7.08V133zm23.447 0h-14.482v-14.004h14.482v2.002h-12.48v10h12.48V133zm-1.699-5.996h-9.785v-2.002h9.785v2.002zM179.01 133h-14.483v-14.004h14.483v2.002h-12.481v10h12.481V133zm-1.699-5.996h-9.786v-2.002h9.786v2.002zM196.1 133h-2.618l-5.478-5.645-5.459 5.645h-2.627l6.787-7.002-6.787-7.002h2.627L196.1 133zm0-14.004l-6.104 6.279-1.299-1.337 4.785-4.942h2.618zM211.266 133h-13.379v-14.004h2.002v12.002h11.377V133zm16.445-14.004l-.02 7.002c0 .651-.084 1.276-.253 1.875a6.9 6.9 0 01-.704 1.67 6.944 6.944 0 01-1.093 1.416 7.084 7.084 0 01-1.416 1.094 7.251 7.251 0 01-1.661.703 6.955 6.955 0 01-1.855.244h-1.475a7.073 7.073 0 01-1.865-.244 7.171 7.171 0 01-1.67-.713 7.165 7.165 0 01-1.406-1.094 7.38 7.38 0 01-1.094-1.416 7.434 7.434 0 01-.703-1.67 7.067 7.067 0 01-.244-1.865v-7.002h2.002v7.002c0 .69.13 1.341.391 1.953.26.606.615 1.136 1.064 1.592.456.449.986.804 1.592 1.064a4.83 4.83 0 001.933.391h1.475c.69 0 1.338-.13 1.943-.391a5.002 5.002 0 001.582-1.064 5.13 5.13 0 001.065-1.592c.26-.612.39-1.263.39-1.953v-7.002h2.022zm18.35 10a3.967 3.967 0 01-2.442 3.692 3.875 3.875 0 01-1.553.312h-12.168v-2.002h12.168a1.916 1.916 0 001.407-.586 1.974 1.974 0 00.586-1.416c0-.273-.052-.531-.157-.771a2.023 2.023 0 00-.429-.635 1.916 1.916 0 00-1.407-.586h-8.164a3.9 3.9 0 01-1.552-.313 4.1 4.1 0 01-1.28-.849 4.252 4.252 0 01-.859-1.28 3.944 3.944 0 01-.313-1.562c0-.547.105-1.064.313-1.553a4.027 4.027 0 012.139-2.129 3.822 3.822 0 011.552-.322h11.162v2.002h-11.162c-.273 0-.534.052-.781.156a1.99 1.99 0 00-1.064 1.075c-.105.24-.157.498-.157.771a1.978 1.978 0 00.586 1.416c.183.182.394.326.635.43.247.104.508.156.781.156h8.164c.554 0 1.071.107 1.553.322.488.209.912.495 1.27.86.364.358.651.781.859 1.269.208.482.313.996.313 1.543zm4.355 4.004h-2.002v-14.004h2.002V133zm18.994-14.004L262.047 133h-2.285l-7.354-14.004h2.276l6.22 11.846 6.221-11.846h2.285zM285.865 133h-14.482v-14.004h14.482v2.002h-12.48v10h12.48V133zm-1.699-5.996h-9.785v-2.002h9.785v2.002zM165.696 29.08l-3.387-2.612 3.388-2.613c.404-.311.404-.816 0-1.127l-3.465-2.672 3.382-2.607c.404-.311.404-.816 0-1.127L144.747.233c-.404-.31-1.058-.31-1.462 0l-20.921 16.13c-.194.15-.303.353-.303.564 0 .211.109.414.303.564l3.377 2.604-3.388 2.612c-.403.31-.403.815 0 1.127l3.376 2.602-3.426 2.642c-.404.311-.404.816 0 1.127l3.438 2.651-3.388 2.612c-.403.311-.403.816 0 1.127l4.114 3.172c.202.155.466.233.731.233a1.2 1.2 0 00.73-.233l16.091-12.406 15.995 12.332c.194.15.457.234.731.234a1.2 1.2 0 00.73-.234l4.107-3.166c.404-.31.404-.815 0-1.127l-3.311-2.552 3.426-2.641c.403-.312.403-.816-.001-1.127zm-2.191-5.789l-2.658 2.05-15.387-11.863 2.658-2.05 15.387 11.863zm-.083-6.405l-2.651 2.044-15.298-11.795 2.651-2.044 15.298 11.794zm-38.866.041l19.46-15.003 2.647 2.04-19.46 15.004-2.647-2.04zm-.01 6.343l19.466-15.008 2.645 2.04-19.466 15.008-2.645-2.04zm-.051 6.372l19.504-15.037 2.707 2.087-19.503 15.037-2.708-2.087zm2.703 8.434l-2.652-2.044 19.466-15.008 2.652 2.044-19.466 15.008zm36.192-2.112l-2.645 2.039-15.265-11.769 2.645-2.039 15.265 11.769zm-2.581-4.243l-15.336-11.824 2.695-2.078 15.336 11.824-2.695 2.078z" fill="#fff"/></svg>